<mxfile host="65bd71144e">
    <diagram id="pIsPSVw4wNhW4OB5O9Dt" name="Page-1">
        <mxGraphModel dx="1107" dy="685" grid="1" gridSize="10" guides="1" tooltips="1" connect="1" arrows="1" fold="1" page="1" pageScale="1" pageWidth="850" pageHeight="1100" math="0" shadow="0">
            <root>
                <mxCell id="0"/>
                <mxCell id="1" parent="0"/>
                <mxCell id="332" value="" style="group" parent="1" vertex="1" connectable="0">
                    <mxGeometry x="200" width="160" height="140" as="geometry"/>
                </mxCell>
                <mxCell id="323" value="s = 0, b = 0, u = 4" style="rounded=0;whiteSpace=wrap;html=1;fontFamily=Lucida Console;align=left;strokeColor=none;fillColor=none;" parent="332" vertex="1">
                    <mxGeometry width="160" height="20" as="geometry"/>
                </mxCell>
                <mxCell id="324" value="s = 0, b = 1, u = 4" style="rounded=0;whiteSpace=wrap;html=1;fontFamily=Lucida Console;align=left;strokeColor=none;fillColor=none;" parent="332" vertex="1">
                    <mxGeometry y="40" width="160" height="20" as="geometry"/>
                </mxCell>
                <mxCell id="325" value="s = 1, b = 0, u = 2" style="rounded=0;whiteSpace=wrap;html=1;fontFamily=Lucida Console;align=left;strokeColor=none;fillColor=none;" parent="332" vertex="1">
                    <mxGeometry y="80" width="160" height="20" as="geometry"/>
                </mxCell>
                <mxCell id="326" value="s = 1, b = 1, u = 4" style="rounded=0;whiteSpace=wrap;html=1;fontFamily=Lucida Console;align=left;strokeColor=none;fillColor=none;" parent="332" vertex="1">
                    <mxGeometry y="120" width="160" height="20" as="geometry"/>
                </mxCell>
                <mxCell id="254" value="" style="rounded=1;whiteSpace=wrap;html=1;fontFamily=Lucida Console;align=right;shadow=0;sketch=1;fillStyle=cross-hatch;fillColor=#FF0000;" parent="1" vertex="1">
                    <mxGeometry width="40" height="20" as="geometry"/>
                </mxCell>
                <mxCell id="255" value="" style="rounded=1;whiteSpace=wrap;html=1;fontFamily=Lucida Console;align=right;shadow=0;sketch=1;fillColor=#00FF00;fillStyle=cross-hatch;" parent="1" vertex="1">
                    <mxGeometry y="40" width="20" height="20" as="geometry"/>
                </mxCell>
                <mxCell id="256" value="" style="rounded=1;whiteSpace=wrap;html=1;fontFamily=Lucida Console;align=right;shadow=0;sketch=1;fillStyle=cross-hatch;fillColor=#0000FF;" parent="1" vertex="1">
                    <mxGeometry y="80" width="60" height="20" as="geometry"/>
                </mxCell>
                <mxCell id="257" value="" style="rounded=1;whiteSpace=wrap;html=1;fontFamily=Lucida Console;align=right;shadow=0;sketch=1;fillStyle=cross-hatch;fillColor=#FF8000;" parent="1" vertex="1">
                    <mxGeometry x="120" y="120" width="40" height="20" as="geometry"/>
                </mxCell>
                <mxCell id="258" value="" style="rounded=1;whiteSpace=wrap;html=1;fontFamily=Lucida Console;align=right;shadow=0;sketch=1;fillStyle=cross-hatch;fillColor=#FF0000;" parent="1" vertex="1">
                    <mxGeometry x="40" width="40" height="20" as="geometry"/>
                </mxCell>
                <mxCell id="259" value="" style="rounded=1;whiteSpace=wrap;html=1;fontFamily=Lucida Console;align=right;shadow=0;sketch=1;fillStyle=cross-hatch;fillColor=#FF0000;" parent="1" vertex="1">
                    <mxGeometry x="80" width="40" height="20" as="geometry"/>
                </mxCell>
                <mxCell id="260" value="" style="rounded=1;whiteSpace=wrap;html=1;fontFamily=Lucida Console;align=right;shadow=0;sketch=1;fillStyle=cross-hatch;fillColor=#FF0000;" parent="1" vertex="1">
                    <mxGeometry x="120" width="40" height="20" as="geometry"/>
                </mxCell>
                <mxCell id="261" value="" style="rounded=1;whiteSpace=wrap;html=1;fontFamily=Lucida Console;align=right;shadow=0;sketch=1;fillColor=#00FF00;fillStyle=cross-hatch;" parent="1" vertex="1">
                    <mxGeometry x="20" y="40" width="20" height="20" as="geometry"/>
                </mxCell>
                <mxCell id="262" value="" style="rounded=1;whiteSpace=wrap;html=1;fontFamily=Lucida Console;align=right;shadow=0;sketch=1;fillColor=#00FF00;fillStyle=cross-hatch;" parent="1" vertex="1">
                    <mxGeometry x="40" y="40" width="20" height="20" as="geometry"/>
                </mxCell>
                <mxCell id="263" value="" style="rounded=1;whiteSpace=wrap;html=1;fontFamily=Lucida Console;align=right;shadow=0;sketch=1;fillColor=#00FF00;fillStyle=cross-hatch;" parent="1" vertex="1">
                    <mxGeometry x="60" y="40" width="20" height="20" as="geometry"/>
                </mxCell>
                <mxCell id="264" value="" style="rounded=1;whiteSpace=wrap;html=1;fontFamily=Lucida Console;align=right;shadow=0;sketch=1;fillStyle=cross-hatch;fillColor=#0000FF;" parent="1" vertex="1">
                    <mxGeometry x="60" y="80" width="60" height="20" as="geometry"/>
                </mxCell>
                <mxCell id="265" value="" style="rounded=1;whiteSpace=wrap;html=1;fontFamily=Lucida Console;align=right;shadow=0;sketch=1;fillStyle=cross-hatch;fillColor=#FF8000;" parent="1" vertex="1">
                    <mxGeometry y="120" width="40" height="20" as="geometry"/>
                </mxCell>
                <mxCell id="266" value="" style="rounded=1;whiteSpace=wrap;html=1;fontFamily=Lucida Console;align=right;shadow=0;sketch=1;fillStyle=cross-hatch;fillColor=#FF8000;" parent="1" vertex="1">
                    <mxGeometry x="40" y="120" width="40" height="20" as="geometry"/>
                </mxCell>
                <mxCell id="267" value="" style="rounded=1;whiteSpace=wrap;html=1;fontFamily=Lucida Console;align=right;shadow=0;sketch=1;fillStyle=cross-hatch;fillColor=#FF8000;" parent="1" vertex="1">
                    <mxGeometry x="80" y="120" width="40" height="20" as="geometry"/>
                </mxCell>
            </root>
        </mxGraphModel>
    </diagram>
</mxfile>